{"asset":{"version":"2.0","generator":"FreeCAD Panca STEP tessellation; GPL-3.0"},"scene":0,"scenes":[{"nodes":[0]}],"nodes":[{"mesh":0,"name":"Panca_50 six-solid STEP assembly"}],"buffers":[{"uri":"panca_50_distant.bin","byteLength":81744}],"bufferViews":[{"buffer":0,"byteOffset":0,"byteLength":24648,"target":34962},{"buffer":0,"byteOffset":24648,"byteLength":24648,"target":34962},{"buffer":0,"byteOffset":49296,"byteLength":24648,"target":34962},{"buffer":0,"byteOffset":73944,"byteLength":7800,"target":34963}],"accessors":[{"bufferView":0,"componentType":5126,"count":2054,"type":"VEC3","min":[-0.20000000298023224,2.842171078036277e-17,-0.15000000596046448],"max":[0.20000000298023224,0.44999998807907104,0.15000000596046448]},{"bufferView":1,"componentType":5126,"count":2054,"type":"VEC3"},{"bufferView":2,"componentType":5126,"count":2054,"type":"VEC3"},{"bufferView":3,"componentType":5123,"count":3900,"type":"SCALAR"}],"materials":[{"name":"Panca wood","pbrMetallicRoughness":{"baseColorFactor":[1,1,1,1],"metallicFactor":0,"roughnessFactor":0.96}}],"meshes":[{"primitives":[{"attributes":{"POSITION":0,"NORMAL":1,"COLOR_0":2},"indices":3,"material":0}]}],"extras":{"license":"GPL-3.0","source":"https://github.com/Compagnia-d-Arme-del-Santo-Luca/medieval_furniture/blob/081fd0bc28486aff01fa4dde2d64227809a7ac01/stp_files/Panca_50.stp","millimetresToMetres":true,"solidCount":6,"distantOnly":true,"maxRelativeError":0.004}}
