{"asset":{"version":"2.0","generator":"FreeCAD Panca STEP tessellation; GPL-3.0"},"scene":0,"scenes":[{"nodes":[0]}],"nodes":[{"mesh":0,"name":"Panca_50 six-solid STEP assembly"}],"buffers":[{"uri":"panca_50.bin","byteLength":401760}],"bufferViews":[{"buffer":0,"byteOffset":0,"byteLength":133920,"target":34962},{"buffer":0,"byteOffset":133920,"byteLength":133920,"target":34962},{"buffer":0,"byteOffset":267840,"byteLength":133920,"target":34962}],"accessors":[{"bufferView":0,"componentType":5126,"count":11160,"type":"VEC3","min":[-0.2,2.842170943040401e-17,-0.15],"max":[0.2,0.45,0.15]},{"bufferView":1,"componentType":5126,"count":11160,"type":"VEC3"},{"bufferView":2,"componentType":5126,"count":11160,"type":"VEC3"}],"materials":[{"name":"Panca wood","pbrMetallicRoughness":{"baseColorFactor":[1,1,1,1],"metallicFactor":0,"roughnessFactor":0.96}}],"meshes":[{"primitives":[{"attributes":{"POSITION":0,"NORMAL":1,"COLOR_0":2},"material":0}]}],"extras":{"license":"GPL-3.0","source":"https://github.com/Compagnia-d-Arme-del-Santo-Luca/medieval_furniture/blob/081fd0bc28486aff01fa4dde2d64227809a7ac01/stp_files/Panca_50.stp","millimetresToMetres":true,"solidCount":6}}
