{"asset":{"version":"2.0","generator":"ShopPrentice MIT visible-surface adaptation"},"scene":0,"scenes":[{"nodes":[0]}],"nodes":[{"mesh":0,"name":"shaker_nightstand"}],"buffers":[{"uri":"shaker_nightstand.bin","byteLength":47520}],"bufferViews":[{"buffer":0,"byteOffset":0,"byteLength":15840,"target":34962},{"buffer":0,"byteOffset":15840,"byteLength":15840,"target":34962},{"buffer":0,"byteOffset":31680,"byteLength":15840,"target":34962}],"accessors":[{"bufferView":0,"componentType":5126,"count":1320,"type":"VEC3","min":[-0.3174999952316284,0,-0.2159000039100647],"max":[0.3174999952316284,0.7302500009536743,0.2231999933719635]},{"bufferView":1,"componentType":5126,"count":1320,"type":"VEC3"},{"bufferView":2,"componentType":5126,"count":1320,"type":"VEC3"}],"materials":[{"name":"Aged timber","pbrMetallicRoughness":{"metallicFactor":0,"roughnessFactor":0.96}}],"meshes":[{"primitives":[{"attributes":{"POSITION":0,"NORMAL":1,"COLOR_0":2},"material":0}]}],"extras":{"license":"MIT","source":"https://github.com/ShopPrentice/shopprentice/tree/d670906ae258a80eefe9ec65d5cccffe67d2f1fb/examples/shaker-nightstand","adaptation":true}}
