{"asset":{"version":"2.0","generator":"ShopPrentice MIT visible-surface adaptation"},"scene":0,"scenes":[{"nodes":[0]}],"nodes":[{"mesh":0,"name":"windsor_chair"}],"buffers":[{"uri":"windsor_chair.bin","byteLength":527904}],"bufferViews":[{"buffer":0,"byteOffset":0,"byteLength":175968,"target":34962},{"buffer":0,"byteOffset":175968,"byteLength":175968,"target":34962},{"buffer":0,"byteOffset":351936,"byteLength":175968,"target":34962}],"accessors":[{"bufferView":0,"componentType":5126,"count":14664,"type":"VEC3","min":[-0.23677177727222443,-0.002375942189246416,-0.2659887671470642],"max":[0.23677177727222443,0.8922641277313232,0.20050005614757538]},{"bufferView":1,"componentType":5126,"count":14664,"type":"VEC3"},{"bufferView":2,"componentType":5126,"count":14664,"type":"VEC3"}],"materials":[{"name":"Aged timber","pbrMetallicRoughness":{"metallicFactor":0,"roughnessFactor":0.96}}],"meshes":[{"primitives":[{"attributes":{"POSITION":0,"NORMAL":1,"COLOR_0":2},"material":0}]}],"extras":{"license":"MIT","source":"https://github.com/ShopPrentice/shopprentice/tree/d670906ae258a80eefe9ec65d5cccffe67d2f1fb/examples/windsor-chair","adaptation":true}}
