{"asset":{"version":"2.0","generator":"ShopPrentice MIT visible-surface adaptation"},"scene":0,"scenes":[{"nodes":[0]}],"nodes":[{"mesh":0,"name":"windsor_chair"}],"buffers":[{"uri":"windsor_chair_distant.bin","byteLength":64944}],"bufferViews":[{"buffer":0,"byteOffset":0,"byteLength":18228,"target":34962},{"buffer":0,"byteOffset":18228,"byteLength":18228,"target":34962},{"buffer":0,"byteOffset":36456,"byteLength":18228,"target":34962},{"buffer":0,"byteOffset":54684,"byteLength":10260,"target":34963}],"accessors":[{"bufferView":0,"componentType":5126,"count":1519,"type":"VEC3","min":[-0.23677177727222443,-0.002375942189246416,-0.2659887671470642],"max":[0.23677177727222443,0.8922641277313232,0.20050005614757538]},{"bufferView":1,"componentType":5126,"count":1519,"type":"VEC3"},{"bufferView":2,"componentType":5126,"count":1519,"type":"VEC3"},{"bufferView":3,"componentType":5123,"count":5130,"type":"SCALAR"}],"materials":[{"name":"Aged timber","pbrMetallicRoughness":{"metallicFactor":0,"roughnessFactor":0.96}}],"meshes":[{"primitives":[{"attributes":{"POSITION":0,"NORMAL":1,"COLOR_0":2},"indices":3,"material":0}]}],"extras":{"license":"MIT","source":"https://github.com/ShopPrentice/shopprentice/tree/d670906ae258a80eefe9ec65d5cccffe67d2f1fb/examples/windsor-chair","adaptation":true,"distantOnly":true,"maxRelativeError":0.004}}
