<svg xmlns="http://www.w3.org/2000/svg" width="1600" height="1050" viewBox="0 0 1600 1050"><defs><clipPath id="inside"><path d="M507.35,205.25 L663.75,205.25 L663.75,331.75 L661.45,331.75 L661.45,404.20 L729.30,404.20 L729.30,489.30 L661.45,489.30 L661.45,522.65 L681.00,522.65 L681.00,577.85 L661.45,577.85 L661.45,613.50 L721.25,613.50 L721.25,682.50 L658.00,682.50 L658.00,694.00 L1027.15,694.00 L1027.15,838.90 L863.85,838.90 L863.85,812.45 L685.60,812.45 L685.60,840.05 L610.85,840.05 L610.85,811.30 L591.30,791.75 L557.95,791.75 L520.00,791.75 L520.00,331.75 L507.35,331.75Z" fill-rule="evenodd"/></clipPath><pattern id="hatch" patternUnits="userSpaceOnUse" width="10" height="10"><path d="M0 10L10 0" stroke="#bac3c9" stroke-width="1"/></pattern></defs><rect width="100%" height="100%" fill="#faf9f5"/><g font-family="Arial, sans-serif"><text x="56" y="52" fill="#253746" font-size="34">1829 · Basement · rough proposal</text><text x="56" y="88" fill="#56656d" font-size="20">Exterior shape from the current model; internal walls and stairs proposed · Rear at top, Reception at bottom</text><text x="462.5" y="165" fill="#253746" text-anchor="start" font-size="18" dominant-baseline="middle">REAR ↑</text><path d="M499.30,214.45 L462.50,214.45" fill="none" stroke="#dce8df" stroke-width="16.099999999999998" stroke-linejoin="round"/><path d="M499.30,214.45 L462.50,214.45" fill="none" stroke="#86a393" stroke-width="1" stroke-dasharray="3 3"/><path d="M644.77,851.55 L591.88,851.55" fill="none" stroke="#dce8df" stroke-width="16.099999999999998" stroke-linejoin="round"/><path d="M644.77,851.55 L591.88,851.55" fill="none" stroke="#86a393" stroke-width="1" stroke-dasharray="3 3"/><path d="M812.67,824.52 L885.24,824.52 L885.24,889.50" fill="none" stroke="#dce8df" stroke-width="16.099999999999998" stroke-linejoin="round"/><path d="M812.67,824.52 L885.24,824.52 L885.24,889.50" fill="none" stroke="#86a393" stroke-width="1" stroke-dasharray="3 3"/><path d="M507.35,205.25 L663.75,205.25 L663.75,331.75 L661.45,331.75 L661.45,404.20 L729.30,404.20 L729.30,489.30 L661.45,489.30 L661.45,522.65 L681.00,522.65 L681.00,577.85 L661.45,577.85 L661.45,613.50 L721.25,613.50 L721.25,682.50 L658.00,682.50 L658.00,694.00 L1027.15,694.00 L1027.15,838.90 L863.85,838.90 L863.85,812.45 L685.60,812.45 L685.60,840.05 L610.85,840.05 L610.85,811.30 L591.30,791.75 L557.95,791.75 L520.00,791.75 L520.00,331.75 L507.35,331.75Z" fill="#f0eee7" fill-rule="evenodd"/><g clip-path="url(#inside)"><path d="M507.35,235.15 L574.05,301.85 L574.05,427.78 L520.00,427.78 L520.00,331.75 L507.35,331.75Z" fill="#eee9db" stroke="#8b9295" stroke-width="1.1"/><path d="M601.65,301.85 L663.75,239.75 L663.75,331.75 L661.45,331.75 L661.45,427.78 L601.65,427.78Z" fill="#eee9db" stroke="#8b9295" stroke-width="1.1"/><path d="M520.00,427.78 L574.05,427.78 L574.05,517.47 L520.00,517.47Z" fill="#eee9db" stroke="#8b9295" stroke-width="1.1"/><path d="M601.65,427.78 L661.45,427.78 L661.45,517.47 L601.65,517.47Z" fill="#eee9db" stroke="#8b9295" stroke-width="1.1"/><path d="M520.00,517.47 L574.05,517.47 L574.05,562.33 L520.00,562.33Z" fill="#eee9db" stroke="#8b9295" stroke-width="1.1"/><path d="M601.65,517.47 L661.45,517.47 L661.45,562.33 L601.65,562.33Z" fill="#eee9db" stroke="#8b9295" stroke-width="1.1"/><path d="M520.00,562.33 L574.05,562.33 L574.05,628.45 L520.00,628.45Z" fill="#eee9db" stroke="#8b9295" stroke-width="1.1"/><path d="M601.65,562.33 L661.45,562.33 L661.45,628.45 L601.65,628.45Z" fill="#eee9db" stroke="#8b9295" stroke-width="1.1"/><path d="M507.35,205.25 L663.75,205.25 L663.75,239.75 L601.65,301.85 L574.05,301.85 L507.35,235.15Z" fill="#eee9db" stroke="none" stroke-width="1.1"/><path d="M507.35,205.25 L663.75,205.25" fill="none" stroke="#8b9295" stroke-width="1.1"/><path d="M663.75,205.25 L663.75,239.75" fill="none" stroke="#8b9295" stroke-width="1.1"/><path d="M663.75,239.75 L601.65,301.85" fill="none" stroke="#8b9295" stroke-width="1.1"/><path d="M574.05,301.85 L507.35,235.15" fill="none" stroke="#8b9295" stroke-width="1.1"/><path d="M507.35,235.15 L507.35,205.25" fill="none" stroke="#8b9295" stroke-width="1.1"/><path d="M660.30,721.60 L797.15,721.60 L797.15,812.45 L660.30,812.45Z" fill="#eee9db" stroke="#8b9295" stroke-width="1.1"/><path d="M828.20,721.60 L945.50,721.60 L945.50,838.90 L828.20,838.90Z" fill="#eee9db" stroke="#8b9295" stroke-width="1.1"/><path d="M945.50,721.60 L1027.15,721.60 L1027.15,838.90 L945.50,838.90Z" fill="#eee9db" stroke="#8b9295" stroke-width="1.1"/><path d="M587.85,288.05 L587.85,707.80 L922.50,707.80" fill="none" stroke="#b6d4df" stroke-width="27.599999999999998" stroke-linejoin="round" stroke-linecap="square"/><path d="M587.85,707.80 L644.77,751.50 L644.77,842.12" fill="none" stroke="#b6d4df" stroke-width="27.599999999999998" stroke-linejoin="round" stroke-linecap="square"/><path d="M840.85,707.80 L840.85,797.50 L812.67,797.50 L812.67,814.52" fill="none" stroke="#b6d4df" stroke-width="27.599999999999998" stroke-linejoin="round" stroke-linecap="square"/><path d="M574.05,357.34 L574.05,372.29" stroke="#eee9db" stroke-width="5"/><path d="M601.65,357.34 L601.65,372.29" stroke="#eee9db" stroke-width="5"/><path d="M574.05,465.15 L574.05,480.10" stroke="#eee9db" stroke-width="5"/><path d="M601.65,465.15 L601.65,480.10" stroke="#eee9db" stroke-width="5"/><path d="M574.05,532.42 L574.05,547.38" stroke="#eee9db" stroke-width="5"/><path d="M601.65,532.42 L601.65,547.38" stroke="#eee9db" stroke-width="5"/><path d="M574.05,587.91 L574.05,602.86" stroke="#eee9db" stroke-width="5"/><path d="M601.65,587.91 L601.65,602.86" stroke="#eee9db" stroke-width="5"/><path d="M720.68,721.60 L735.63,721.60" stroke="#eee9db" stroke-width="5"/><path d="M920.77,721.60 L935.73,721.60" stroke="#eee9db" stroke-width="5"/><path d="M945.50,772.77 L945.50,787.73" stroke="#eee9db" stroke-width="5"/><path d="M767.25,723.90 L827.05,723.90 L827.05,783.70 L767.25,783.70Z" fill="#d5c5df" stroke="#665579" stroke-width="1.5"/><path d="M782.20,738.85 L812.10,738.85 L812.10,768.75 L782.20,768.75Z" fill="#faf9f5" stroke="#665579" stroke-width="2"/><path d="M767.25,738.85 L782.20,738.85" stroke="#927ea6" stroke-width="1"/><path d="M812.10,738.85 L827.05,738.85" stroke="#927ea6" stroke-width="1"/><path d="M767.25,741.34 L782.20,741.34" stroke="#927ea6" stroke-width="1"/><path d="M812.10,741.34 L827.05,741.34" stroke="#927ea6" stroke-width="1"/><path d="M767.25,743.83 L782.20,743.83" stroke="#927ea6" stroke-width="1"/><path d="M812.10,743.83 L827.05,743.83" stroke="#927ea6" stroke-width="1"/><path d="M767.25,746.32 L782.20,746.32" stroke="#927ea6" stroke-width="1"/><path d="M812.10,746.32 L827.05,746.32" stroke="#927ea6" stroke-width="1"/><path d="M767.25,748.82 L782.20,748.82" stroke="#927ea6" stroke-width="1"/><path d="M812.10,748.82 L827.05,748.82" stroke="#927ea6" stroke-width="1"/><path d="M767.25,751.31 L782.20,751.31" stroke="#927ea6" stroke-width="1"/><path d="M812.10,751.31 L827.05,751.31" stroke="#927ea6" stroke-width="1"/><path d="M767.25,753.80 L782.20,753.80" stroke="#927ea6" stroke-width="1"/><path d="M812.10,753.80 L827.05,753.80" stroke="#927ea6" stroke-width="1"/><path d="M767.25,756.29 L782.20,756.29" stroke="#927ea6" stroke-width="1"/><path d="M812.10,756.29 L827.05,756.29" stroke="#927ea6" stroke-width="1"/><path d="M767.25,758.78 L782.20,758.78" stroke="#927ea6" stroke-width="1"/><path d="M812.10,758.78 L827.05,758.78" stroke="#927ea6" stroke-width="1"/><path d="M767.25,761.27 L782.20,761.27" stroke="#927ea6" stroke-width="1"/><path d="M812.10,761.27 L827.05,761.27" stroke="#927ea6" stroke-width="1"/><path d="M767.25,763.77 L782.20,763.77" stroke="#927ea6" stroke-width="1"/><path d="M812.10,763.77 L827.05,763.77" stroke="#927ea6" stroke-width="1"/><path d="M767.25,766.26 L782.20,766.26" stroke="#927ea6" stroke-width="1"/><path d="M812.10,766.26 L827.05,766.26" stroke="#927ea6" stroke-width="1"/><path d="M767.25,768.75 L782.20,768.75" stroke="#927ea6" stroke-width="1"/><path d="M812.10,768.75 L827.05,768.75" stroke="#927ea6" stroke-width="1"/><path d="M554.50,704.35 L620.05,704.35 L620.05,769.90 L554.50,769.90Z" fill="#d5c5df" stroke="#665579" stroke-width="1.5"/><path d="M569.45,719.30 L605.10,719.30 L605.10,754.95 L569.45,754.95Z" fill="#faf9f5" stroke="#665579" stroke-width="2"/><path d="M554.50,719.30 L569.45,719.30" stroke="#927ea6" stroke-width="1"/><path d="M605.10,719.30 L620.05,719.30" stroke="#927ea6" stroke-width="1"/><path d="M554.50,722.27 L569.45,722.27" stroke="#927ea6" stroke-width="1"/><path d="M605.10,722.27 L620.05,722.27" stroke="#927ea6" stroke-width="1"/><path d="M554.50,725.24 L569.45,725.24" stroke="#927ea6" stroke-width="1"/><path d="M605.10,725.24 L620.05,725.24" stroke="#927ea6" stroke-width="1"/><path d="M554.50,728.21 L569.45,728.21" stroke="#927ea6" stroke-width="1"/><path d="M605.10,728.21 L620.05,728.21" stroke="#927ea6" stroke-width="1"/><path d="M554.50,731.18 L569.45,731.18" stroke="#927ea6" stroke-width="1"/><path d="M605.10,731.18 L620.05,731.18" stroke="#927ea6" stroke-width="1"/><path d="M554.50,734.15 L569.45,734.15" stroke="#927ea6" stroke-width="1"/><path d="M605.10,734.15 L620.05,734.15" stroke="#927ea6" stroke-width="1"/><path d="M554.50,737.13 L569.45,737.13" stroke="#927ea6" stroke-width="1"/><path d="M605.10,737.13 L620.05,737.13" stroke="#927ea6" stroke-width="1"/><path d="M554.50,740.10 L569.45,740.10" stroke="#927ea6" stroke-width="1"/><path d="M605.10,740.10 L620.05,740.10" stroke="#927ea6" stroke-width="1"/><path d="M554.50,743.07 L569.45,743.07" stroke="#927ea6" stroke-width="1"/><path d="M605.10,743.07 L620.05,743.07" stroke="#927ea6" stroke-width="1"/><path d="M554.50,746.04 L569.45,746.04" stroke="#927ea6" stroke-width="1"/><path d="M605.10,746.04 L620.05,746.04" stroke="#927ea6" stroke-width="1"/><path d="M554.50,749.01 L569.45,749.01" stroke="#927ea6" stroke-width="1"/><path d="M605.10,749.01 L620.05,749.01" stroke="#927ea6" stroke-width="1"/><path d="M554.50,751.98 L569.45,751.98" stroke="#927ea6" stroke-width="1"/><path d="M605.10,751.98 L620.05,751.98" stroke="#927ea6" stroke-width="1"/><path d="M554.50,754.95 L569.45,754.95" stroke="#927ea6" stroke-width="1"/><path d="M605.10,754.95 L620.05,754.95" stroke="#927ea6" stroke-width="1"/></g><path d="M507.35,205.25 L663.75,205.25 L663.75,331.75 L661.45,331.75 L661.45,404.20 L729.30,404.20 L729.30,489.30 L661.45,489.30 L661.45,522.65 L681.00,522.65 L681.00,577.85 L661.45,577.85 L661.45,613.50 L721.25,613.50 L721.25,682.50 L658.00,682.50 L658.00,694.00 L1027.15,694.00 L1027.15,838.90 L863.85,838.90 L863.85,812.45 L685.60,812.45 L685.60,840.05 L610.85,840.05 L610.85,811.30 L591.30,791.75 L557.95,791.75 L520.00,791.75 L520.00,331.75 L507.35,331.75Z" fill="none" stroke="#394d58" stroke-width="2.2" fill-rule="evenodd"/><path d="M520.00,352.45 L520.00,368.55" stroke="#faf9f5" stroke-width="6"/><path d="M520.00,352.45 L520.00,368.55" stroke="#448296" stroke-width="3"/><path d="M520.00,397.30 L520.00,413.40" stroke="#faf9f5" stroke-width="6"/><path d="M520.00,397.30 L520.00,413.40" stroke="#448296" stroke-width="3"/><path d="M661.45,352.45 L661.45,368.55" stroke="#faf9f5" stroke-width="6"/><path d="M661.45,352.45 L661.45,368.55" stroke="#448296" stroke-width="3"/><path d="M661.45,397.30 L661.45,413.40" stroke="#faf9f5" stroke-width="6"/><path d="M661.45,397.30 L661.45,413.40" stroke="#448296" stroke-width="3"/><path d="M520.00,442.15 L520.00,458.25" stroke="#faf9f5" stroke-width="6"/><path d="M520.00,442.15 L520.00,458.25" stroke="#448296" stroke-width="3"/><path d="M520.00,487.00 L520.00,503.10" stroke="#faf9f5" stroke-width="6"/><path d="M520.00,487.00 L520.00,503.10" stroke="#448296" stroke-width="3"/><path d="M661.45,442.15 L661.45,458.25" stroke="#faf9f5" stroke-width="6"/><path d="M661.45,442.15 L661.45,458.25" stroke="#448296" stroke-width="3"/><path d="M661.45,487.00 L661.45,503.10" stroke="#faf9f5" stroke-width="6"/><path d="M661.45,487.00 L661.45,503.10" stroke="#448296" stroke-width="3"/><path d="M520.00,531.85 L520.00,547.95" stroke="#faf9f5" stroke-width="6"/><path d="M520.00,531.85 L520.00,547.95" stroke="#448296" stroke-width="3"/><path d="M661.45,531.85 L661.45,547.95" stroke="#faf9f5" stroke-width="6"/><path d="M661.45,531.85 L661.45,547.95" stroke="#448296" stroke-width="3"/><path d="M520.00,576.70 L520.00,592.80" stroke="#faf9f5" stroke-width="6"/><path d="M520.00,576.70 L520.00,592.80" stroke="#448296" stroke-width="3"/><path d="M661.45,576.70 L661.45,592.80" stroke="#faf9f5" stroke-width="6"/><path d="M661.45,576.70 L661.45,592.80" stroke="#448296" stroke-width="3"/><text x="547.025" y="364.8125" fill="#253746" text-anchor="middle" font-size="18" dominant-baseline="middle">B1</text><text x="631.5500000000001" y="364.8125" fill="#253746" text-anchor="middle" font-size="18" dominant-baseline="middle">B2</text><text x="547.025" y="472.625" fill="#253746" text-anchor="middle" font-size="18" dominant-baseline="middle">B3</text><text x="631.5500000000001" y="472.625" fill="#253746" text-anchor="middle" font-size="18" dominant-baseline="middle">B4</text><text x="547.025" y="539.9000000000001" fill="#253746" text-anchor="middle" font-size="18" dominant-baseline="middle">B5</text><text x="631.5500000000001" y="539.9000000000001" fill="#253746" text-anchor="middle" font-size="18" dominant-baseline="middle">B6</text><text x="547.025" y="595.3875" fill="#253746" text-anchor="middle" font-size="18" dominant-baseline="middle">B7</text><text x="631.5500000000001" y="595.3875" fill="#253746" text-anchor="middle" font-size="18" dominant-baseline="middle">B8</text><text x="587.85" y="236.30000000000004" fill="#253746" text-anchor="middle" font-size="18" dominant-baseline="middle">B9</text><text x="728.15" y="767.6" fill="#253746" text-anchor="middle" font-size="18" dominant-baseline="middle">B10</text><text x="893.75" y="780.25" fill="#253746" text-anchor="middle" font-size="18" dominant-baseline="middle">B11</text><text x="986.325" y="780.25" fill="#253746" text-anchor="middle" font-size="18" dominant-baseline="middle">B12</text><rect x="780.15" y="742.8000000000001" width="34" height="22" fill="#d5c5df"/><text x="797.15" y="753.8000000000001" fill="#253746" text-anchor="middle" font-size="17" dominant-baseline="middle">S1</text><rect x="570.275" y="726.125" width="34" height="22" fill="#d5c5df"/><text x="587.275" y="737.125" fill="#253746" text-anchor="middle" font-size="17" dominant-baseline="middle">S5</text><path d="M509.19,214.45 L474.00,214.45" fill="none" stroke="#315f77" stroke-width="1.1"/><path d="M509.19,204.10 L509.19,224.80" fill="none" stroke="#315f77" stroke-width="5"/><circle cx="474" cy="214.44999999999996" r="18" fill="#faf9f5" stroke="#315f77" stroke-width="1.2"/><text x="474" y="214.44999999999996" fill="#253746" text-anchor="middle" font-size="17" dominant-baseline="middle">D11</text><path d="M644.77,842.12 L614.30,878.00" fill="none" stroke="#315f77" stroke-width="1.1"/><path d="M634.43,842.12 L655.13,842.12" fill="none" stroke="#315f77" stroke-width="5"/><circle cx="614.3" cy="878" r="18" fill="#faf9f5" stroke="#315f77" stroke-width="1.2"/><text x="614.3" y="878" fill="#253746" text-anchor="middle" font-size="17" dominant-baseline="middle">D12</text><path d="M812.67,814.52 L812.67,878.00" fill="none" stroke="#315f77" stroke-width="1.1"/><path d="M802.33,814.52 L823.02,814.52" fill="none" stroke="#315f77" stroke-width="5"/><circle cx="812.675" cy="878" r="18" fill="#faf9f5" stroke="#315f77" stroke-width="1.2"/><text x="812.675" y="878" fill="#253746" text-anchor="middle" font-size="17" dominant-baseline="middle">D13</text><text x="587.85" y="533" fill="#253746" text-anchor="middle" font-size="18" dominant-baseline="middle">BC1</text><text x="750" y="901" fill="#253746" text-anchor="middle" font-size="19" dominant-baseline="middle">FRONT / RECEPTION ↓</text><rect x="56" y="938" width="22" height="18" fill="#eee9db"/><text x="89" y="952" fill="#253746" font-size="19">R / B · rooms</text><rect x="556" y="938" width="22" height="18" fill="#b6d4df"/><text x="589" y="952" fill="#253746" font-size="19">C · corridors</text><rect x="1056" y="938" width="22" height="18" fill="#d5c5df"/><text x="1089" y="952" fill="#253746" font-size="19">S · internal stairs</text><rect x="56" y="974" width="22" height="18" fill="#287854"/><text x="89" y="988" fill="#253746" font-size="19">F · fire-escape connection</text><rect x="556" y="974" width="22" height="18" fill="#315f77"/><text x="589" y="988" fill="#253746" font-size="19">D · exterior door</text><text x="1070" y="988" fill="#56656d" font-size="18">Press E ↔ matching outside door / landing</text></g></svg>