<svg xmlns="http://www.w3.org/2000/svg" width="1600" height="1050" viewBox="0 0 1600 1050"><defs><clipPath id="inside"><path d="M210.00,344.80 L565.20,344.80 L565.20,335.20 L680.40,220.00 L1275.60,220.00 L1390.80,335.20 L1390.80,776.80 L210.00,776.80Z" fill-rule="evenodd"/></clipPath><pattern id="hatch" patternUnits="userSpaceOnUse" width="10" height="10"><path d="M0 10L10 0" stroke="#bac3c9" stroke-width="1"/></pattern></defs><rect width="100%" height="100%" fill="#faf9f5"/><g font-family="Arial, sans-serif"><text x="56" y="52" fill="#253746" font-size="34">1829 · Second floor · implemented layout</text><text x="56" y="88" fill="#56656d" font-size="20">Owner-requested rooms matching the circled exterior bay · Stair S1 continues from Reception</text><text x="210" y="152.79999999999998" fill="#253746" text-anchor="start" font-size="18" dominant-baseline="middle">CIRCLED EXTERIOR BAY ↑</text><path d="M210.00,344.80 L565.20,344.80 L565.20,335.20 L680.40,220.00 L1275.60,220.00 L1390.80,335.20 L1390.80,776.80 L210.00,776.80Z" fill="#f0eee7" fill-rule="evenodd"/><g clip-path="url(#inside)"><path d="M565.20,335.20 L680.40,220.00 L1074.00,220.00 L1074.00,565.60 L565.20,565.60Z" fill="#eee9db" stroke="#8b9295" stroke-width="1.1"/><path d="M1074.00,220.00 L1275.60,220.00 L1390.80,335.20 L1390.80,565.60 L1074.00,565.60Z" fill="#eee9db" stroke="#8b9295" stroke-width="1.1"/><path d="M452.40,500.80 L507.60,500.80 L507.60,623.20 L1304.40,623.20" fill="none" stroke="#b6d4df" stroke-width="115.19999999999999" stroke-linejoin="round" stroke-linecap="square"/><path d="M774.00,565.60 L865.20,565.60" stroke="#eee9db" stroke-width="5"/><path d="M1186.80,565.60 L1278.00,565.60" stroke="#eee9db" stroke-width="5"/><path d="M234.00,469.60 L483.60,469.60 L483.60,719.20 L234.00,719.20Z" fill="#d5c5df" stroke="#665579" stroke-width="1.5"/><path d="M296.40,532.00 L421.20,532.00 L421.20,656.80 L296.40,656.80Z" fill="#faf9f5" stroke="#665579" stroke-width="2"/><path d="M234.00,532.00 L296.40,532.00" stroke="#927ea6" stroke-width="1"/><path d="M421.20,532.00 L483.60,532.00" stroke="#927ea6" stroke-width="1"/><path d="M234.00,542.40 L296.40,542.40" stroke="#927ea6" stroke-width="1"/><path d="M421.20,542.40 L483.60,542.40" stroke="#927ea6" stroke-width="1"/><path d="M234.00,552.80 L296.40,552.80" stroke="#927ea6" stroke-width="1"/><path d="M421.20,552.80 L483.60,552.80" stroke="#927ea6" stroke-width="1"/><path d="M234.00,563.20 L296.40,563.20" stroke="#927ea6" stroke-width="1"/><path d="M421.20,563.20 L483.60,563.20" stroke="#927ea6" stroke-width="1"/><path d="M234.00,573.60 L296.40,573.60" stroke="#927ea6" stroke-width="1"/><path d="M421.20,573.60 L483.60,573.60" stroke="#927ea6" stroke-width="1"/><path d="M234.00,584.00 L296.40,584.00" stroke="#927ea6" stroke-width="1"/><path d="M421.20,584.00 L483.60,584.00" stroke="#927ea6" stroke-width="1"/><path d="M234.00,594.40 L296.40,594.40" stroke="#927ea6" stroke-width="1"/><path d="M421.20,594.40 L483.60,594.40" stroke="#927ea6" stroke-width="1"/><path d="M234.00,604.80 L296.40,604.80" stroke="#927ea6" stroke-width="1"/><path d="M421.20,604.80 L483.60,604.80" stroke="#927ea6" stroke-width="1"/><path d="M234.00,615.20 L296.40,615.20" stroke="#927ea6" stroke-width="1"/><path d="M421.20,615.20 L483.60,615.20" stroke="#927ea6" stroke-width="1"/><path d="M234.00,625.60 L296.40,625.60" stroke="#927ea6" stroke-width="1"/><path d="M421.20,625.60 L483.60,625.60" stroke="#927ea6" stroke-width="1"/><path d="M234.00,636.00 L296.40,636.00" stroke="#927ea6" stroke-width="1"/><path d="M421.20,636.00 L483.60,636.00" stroke="#927ea6" stroke-width="1"/><path d="M234.00,646.40 L296.40,646.40" stroke="#927ea6" stroke-width="1"/><path d="M421.20,646.40 L483.60,646.40" stroke="#927ea6" stroke-width="1"/><path d="M234.00,656.80 L296.40,656.80" stroke="#927ea6" stroke-width="1"/><path d="M421.20,656.80 L483.60,656.80" stroke="#927ea6" stroke-width="1"/></g><path d="M210.00,344.80 L565.20,344.80 L565.20,335.20 L680.40,220.00 L1275.60,220.00 L1390.80,335.20 L1390.80,776.80 L210.00,776.80Z" fill="none" stroke="#394d58" stroke-width="2.2" fill-rule="evenodd"/><path d="M758.40,220.00 L813.60,220.00" stroke="#faf9f5" stroke-width="6"/><path d="M758.40,220.00 L813.60,220.00" stroke="#448296" stroke-width="3"/><path d="M950.40,220.00 L1005.60,220.00" stroke="#faf9f5" stroke-width="6"/><path d="M950.40,220.00 L1005.60,220.00" stroke="#448296" stroke-width="3"/><path d="M601.93,298.47 L643.67,256.73" stroke="#faf9f5" stroke-width="6"/><path d="M601.93,298.47 L643.67,256.73" stroke="#448296" stroke-width="3"/><path d="M1142.40,220.00 L1197.60,220.00" stroke="#faf9f5" stroke-width="6"/><path d="M1142.40,220.00 L1197.60,220.00" stroke="#448296" stroke-width="3"/><path d="M1312.33,256.73 L1354.07,298.47" stroke="#faf9f5" stroke-width="6"/><path d="M1312.33,256.73 L1354.07,298.47" stroke="#448296" stroke-width="3"/><text x="819.5999999999999" y="397.59999999999997" fill="#253746" text-anchor="middle" font-size="18" dominant-baseline="middle">R41</text><text x="1232.4" y="397.59999999999997" fill="#253746" text-anchor="middle" font-size="18" dominant-baseline="middle">R42</text><rect x="341.79999999999995" y="583.4" width="34" height="22" fill="#d5c5df"/><text x="358.79999999999995" y="594.4" fill="#253746" text-anchor="middle" font-size="17" dominant-baseline="middle">S1</text><text x="834" y="642.4" fill="#253746" text-anchor="middle" font-size="20" dominant-baseline="middle">OPEN LANDING / C24</text><text x="819.5999999999999" y="455.20000000000005" fill="#253746" text-anchor="middle" font-size="16" dominant-baseline="middle">2 straight + 1 angled sash</text><text x="1232.4" y="455.20000000000005" fill="#253746" text-anchor="middle" font-size="16" dominant-baseline="middle">1 straight + 1 angled sash</text><text x="358.79999999999995" y="743.2" fill="#253746" text-anchor="middle" font-size="16" dominant-baseline="middle">S1 to first floor</text><rect x="56" y="938" width="22" height="18" fill="#eee9db"/><text x="89" y="952" fill="#253746" font-size="19">R / B · rooms</text><rect x="556" y="938" width="22" height="18" fill="#b6d4df"/><text x="589" y="952" fill="#253746" font-size="19">C · corridors</text><rect x="1056" y="938" width="22" height="18" fill="#d5c5df"/><text x="1089" y="952" fill="#253746" font-size="19">S · internal stairs</text><text x="1070" y="988" fill="#56656d" font-size="18">Walk S1 down to the first floor</text></g></svg>